<svg version="1.1" xmlns="http://www.w3.org/2000/svg" xmlns:xlink="http://www.w3.org/1999/xlink" width="220.2012" height="264.88636" viewBox="0,0,220.2012,264.88636"><g transform="translate(-129.8994,-47.55682)"><g data-paper-data="{&quot;isPaintingLayer&quot;:true}" stroke-miterlimit="10" stroke-dasharray="" stroke-dashoffset="0" style="mix-blend-mode: normal"><g fill-rule="evenodd"><path d="M241.27708,242.35316c1.86302,0.98632 5.82193,3.20552 0.23288,11.5892c-5.58906,8.38368 -21.6576,10.10973 -23.52062,10.10973c-7.2192,0.24658 -16.06854,0.24658 -25.84939,-3.20552c-28.41104,-9.86315 -28.64392,-42.16498 -19.5617,-47.34313c8.84934,-5.17815 12.80826,14.79473 25.61651,26.87709c5.58906,5.42473 12.3425,7.39736 17.93156,8.63026c7.91783,1.47947 23.05486,-7.89052 25.15076,-6.65763z" fill="#ffab19" stroke="#001026" stroke-width="1.2" stroke-linecap="round" stroke-linejoin="round"/><path d="M183.52349,222.38028c3.72604,6.65763 10.94524,16.02762 10.94524,16.02762c0,0 -8.61646,-2.21921 -13.50689,1.97263c-3.95892,3.20552 -3.02741,8.63026 -2.56165,10.35631c-3.02741,-3.20552 -6.75344,-7.64394 -9.08222,-16.2742c-2.32877,-8.63026 0,-18.98657 4.65755,-20.46604c4.65755,-0.98632 5.82193,2.71237 9.54797,8.38368z" fill="#ffffff" stroke="none" stroke-width="1" stroke-linecap="butt" stroke-linejoin="miter"/></g><g fill-rule="nonzero"><g stroke="#414042" stroke-width="2.7012" stroke-linecap="round" stroke-linejoin="round"><path d="M255.34167,201.29861c1.62901,-9.91092 4.44026,-8.07057 4.44026,-8.07057c1.55537,0.91149 2.08206,3.08465 3.87183,4.58355c5.36931,4.49672 17.82824,13.79108 21.65944,10.76423c8.67373,-7.61488 19.03883,-15.42799 27.7287,-7.21727c11.9424,9.02381 -6.19946,19.19106 -15.37815,26.73505c-7.05621,4.41588 -13.77239,9.51321 -26.73048,0.24779c-10.42176,-8.71131 -14.70876,-8.36256 -14.70876,-8.36256c-5.91042,-3.46367 -2.51185,-8.7693 -0.88284,-18.68022z" fill="#faa51d"/><path d="M279.8543,212.89907l5.45889,-4.32325" fill="none"/></g><g fill="#faa51d" stroke="#414042" stroke-width="2.7012" stroke-linecap="round" stroke-linejoin="round"><path d="M265.55126,246.0827c0,0 -3.63571,15.03568 -0.26711,38.58016c1.48895,10.1308 19.98525,-2.5612 19.64553,17.49209c-0.07516,5.61376 -25.16201,6.5676 -30.76856,4.88933c-5.20144,-1.60158 -6.60924,-3.42314 -6.12318,-8.8604c1.96019,-19.74659 -9.34289,-41.92947 -9.34289,-41.92947"/><path d="M263.58852,289.96992c3.85294,-0.92459 7.47006,-0.73366 7.47006,-0.73366"/></g><path d="M266.04565,216.60465c1.04199,17.96982 7.08005,44.36454 -24.86628,46.21697c-31.94634,1.85242 -30.65176,-22.4633 -31.69954,-40.53294c-1.04778,-18.06965 9.65013,-23.5982 27.91944,-24.65755c18.26931,-1.05935 27.5986,0.90388 28.64638,18.97353z" fill="#faa51d" stroke="#414042" stroke-width="2.7012" stroke-linecap="round" stroke-linejoin="round"/><path d="M259.51471,224.89662c0.65993,11.38088 4.13404,28.10782 -13.33661,29.12087c-17.47065,1.01304 -16.76481,-14.45375 -17.42474,-25.83464c-0.65993,-11.38088 5.14477,-14.92285 15.02817,-15.49594c10.08885,-0.48484 15.07326,0.82883 15.73318,12.20971z" fill="#ffffff" stroke="none" stroke-width="1" stroke-linecap="butt" stroke-linejoin="miter"/><g fill="#faa51d" stroke="#414042" stroke-width="2.7012" stroke-linecap="round" stroke-linejoin="round"><path d="M239.32887,263.73026c0,0 -2.55767,24.98996 -1.01083,36.11908c0.71771,5.46762 -1.19931,8.68399 -6.83186,10.01227c-5.93205,1.34565 -26.2689,3.02573 -26.95624,-3.64567c-2.17924,-20.3079 13.71887,-8.70876 14.6259,-18.97849c2.12797,-23.76303 -5.81687,-38.12721 -5.81687,-38.12721"/><path d="M213.05021,292.49972c0,0 4.25806,-0.84791 8.11536,0.03027"/></g></g><g fill-rule="nonzero"><g><path d="M250.35,67.80742l19.4,-18.9l7.5,30.2c0,0 16.8,12.5 21.8,21c8.5,14.4 8.7,26.1 8.7,26.1c0,0 18.5,5.5 21.7,20.4c3.3,14.9 -8.4,43.2 -57.4,52.9c-49,9.8 -88.6,-3.5 -107.1,-33.4c-18.5,-29.8 10.8,-65.3 9.1,-63.3l-5.8,-49.4l34,22.2c0,0 11.7,-4.4 24.1,-5c4.6,-0.2 13,0.2 17,0.6z" fill="#faa51d" stroke="#414042" stroke-width="2.7012" stroke-linecap="round" stroke-linejoin="round"/><path d="M306.75,127.40742c0,0 17.9,4.3 21.1,19.2c3.9,14.9 -9.3,42.8 -55.7,51.3c-10.5,2.1 -20,3.9 -34.8,3.9c-23,0.1 -47.9,-14.2 -46.1,-44.1c1,-17.2 22.8,-15.9 22.8,-15.9l19,-5c0,0 19.2,4.5 30.6,2c11.4,-2.5 11.4,-11.4 11.4,-11.4l23.8,-7l6.5,5.4z" fill="#ffffff" stroke="none" stroke-width="1" stroke-linecap="butt" stroke-linejoin="miter"/><path d="M163.55,154.00741c0,0 -9.5,1.2 -14.4,1.5c-4.9,0.3 -15.6,-0.7 -15.6,-0.7" fill="none" stroke="#414042" stroke-width="2.7012" stroke-linecap="round" stroke-linejoin="round"/><path d="M348.75,129.80741c0,0 -4.8,4.2 -11.9,6.7c-6,2.1 -17.9,4 -17.9,4" fill="none" stroke="#414042" stroke-width="2.7012" stroke-linecap="round" stroke-linejoin="round"/><path d="M131.25,128.7074c0,0 5.9,1.2 16.7,6c9.8,4.4 16,9 16,9" fill="none" stroke="#414042" stroke-width="2.7012" stroke-linecap="round" stroke-linejoin="round"/><path d="M346.75,159.90742c0,0 -4.9,0.4 -12.1,-0.3c-7.4,-0.7 -14.5,-3.6 -14.5,-3.6" fill="none" stroke="#414042" stroke-width="2.7012" stroke-linecap="round" stroke-linejoin="round"/><path d="M242.45,71.30742c7.4,1.8 10.2,3.8 10.2,3.8" fill="none" stroke="#414042" stroke-width="2.7012" stroke-linecap="round" stroke-linejoin="round"/><path d="M196.05,71.60742l14,9.7" fill="none" stroke="#414042" stroke-width="2.7012" stroke-linecap="round" stroke-linejoin="round"/></g><g><path d="M293.35,100.50742c7.6,11.7 7.9,25.1 0.6,29.8c-7.3,4.8 -19.4,-0.9 -27.1,-12.6c-7.7,-11.7 -7.9,-25.1 -0.6,-29.8c7.3,-4.8 19.4,0.9 27.1,12.6z" fill="#ffffff" stroke="#414042" stroke-width="2.7012" stroke-linecap="round" stroke-linejoin="round"/><path d="M282.25,113.80741c0.8,2.7 -0.6,5.5 -3.1,6.2c-2.5,0.7 -5.2,-0.9 -5.9,-3.6c-0.8,-2.7 0.7,-5.5 3.2,-6.2c2.4,-0.7 5.1,0.9 5.8,3.6" fill="#404041" stroke="none" stroke-width="1" stroke-linecap="butt" stroke-linejoin="miter"/></g><g><path d="M230.75,109.00741c7.6,11.7 6.8,25.8 -1.8,31.4c-8.6,5.6 -21.8,0.7 -29.5,-11c-7.7,-11.7 -6.9,-25.8 1.8,-31.4c8.6,-5.7 21.8,-0.7 29.5,11z" fill="#ffffff" stroke="#414042" stroke-width="2.7012" stroke-linecap="round" stroke-linejoin="round"/><path d="M219.05,123.00741c0,2.8 -2.1,5.1 -4.7,5.1c-2.6,0 -4.7,-2.3 -4.7,-5.1c0,-2.8 2.1,-5.1 4.7,-5.1c2.6,0 4.7,2.3 4.7,5.1" fill="#404041" stroke="none" stroke-width="1" stroke-linecap="butt" stroke-linejoin="miter"/></g><path d="M260.25,135.7074c4.5,-0.5 10.9,-4 11.7,1.1c0.1,2.3 -4.2,11.1 -9.3,11.4c-5.3,0.3 -14.9,-6.6 -14.6,-10.6c0.4,-4.1 8.3,-1.4 12.2,-1.9z" fill="#414042" stroke="#414042" stroke-width="2.7012" stroke-linecap="round" stroke-linejoin="round"/><path d="M183.75,101.20742c0,0 2.7,-15 17.1,-15" fill="#faa51d" stroke="#414042" stroke-width="2.7012" stroke-linecap="round" stroke-linejoin="round"/><path d="M257.95,167.70742c-10.3,4.4 -8.9,17.2 -3.2,18.5c-3.6,4.4 -15.3,3.4 -20.6,1.4c-19.3,-7.2 -7.6,-25.6 -7.6,-25.6c0,0 14.4,11.3 42.5,3.5" fill="#b74e6c" stroke="#231f20" stroke-width="2.7012" stroke-linecap="round" stroke-linejoin="round"/><path d="M228.15,184.30742c0,0 5.3,-3.2 11.6,-2.4c5.2,0.7 11.7,6.5 11.7,6.5c0,0 -13.3,3.2 -23.3,-4.1z" fill="#ff6680" stroke="#231f20" stroke-width="2.7012" stroke-linecap="round" stroke-linejoin="round"/></g><g fill="#faa51d" fill-rule="nonzero"><path d="M214.45,218.70741l-5.3,18.5l-24.9,1.8l5,-9.6z" stroke="none" stroke-width="1" stroke-linecap="butt" stroke-linejoin="miter"/><path d="M189.25,229.40742c1.9,-1.9 7.1,-7 11.8,-11.8c5.8,-5.9 18.2,-14.3 21.1,0" stroke="#414042" stroke-width="2.7012" stroke-linecap="round" stroke-linejoin="round"/><path d="M208.65,236.40742c3,2.7 10.9,7.1 14.9,13.6c4.6,7.4 1,17.6 -7.3,20.1c-7.5,2.2 -14.3,-6 -26.9,-21c-3.6,-4.3 -4.7,-10.4 -2.4,-15.6c0,-0.1 0.1,-0.1 0.1,-0.2c2.2,-4.9 5.7,-9.1 9.9,-12.6l9.3,-7.7" stroke="#414042" stroke-width="2.7012" stroke-linecap="round" stroke-linejoin="round"/></g></g></g></svg>